<?xml version="1.0" encoding="UTF-8" standalone="no"?>
<!-- Created with Inkscape (http://www.inkscape.org/) -->

<svg
   inkscape:export-ydpi="90"
   inkscape:export-xdpi="90"
   inkscape:export-filename="/home/maxwe/Dokumente/ISDM/logo.png"
   sodipodi:docname="logo_bw.svg"
   inkscape:version="1.1 (c4e8f9ed74, 2021-05-24)"
   version="1.1"
   id="svg2"
   viewBox="0 0 1000 1000"
   height="1000"
   width="1000"
   xmlns:inkscape="http://www.inkscape.org/namespaces/inkscape"
   xmlns:sodipodi="http://sodipodi.sourceforge.net/DTD/sodipodi-0.dtd"
   xmlns="http://www.w3.org/2000/svg"
   xmlns:svg="http://www.w3.org/2000/svg"
   xmlns:rdf="http://www.w3.org/1999/02/22-rdf-syntax-ns#"
   xmlns:cc="http://creativecommons.org/ns#"
   xmlns:dc="http://purl.org/dc/elements/1.1/">
  <defs
     id="defs4">
    <rect
       x="1573.0417"
       y="338.70563"
       width="1256.6084"
       height="53.203445"
       id="rect99602" />
    <rect
       x="1117.1331"
       y="139.31902"
       width="1848.3141"
       height="513.48608"
       id="rect20559" />
    <rect
       x="1127.8667"
       y="145.91634"
       width="1496.7433"
       height="637.18433"
       id="rect8453" />
    <rect
       x="1117.1331"
       y="139.31902"
       width="1848.3141"
       height="513.48608"
       id="rect20559-6" />
    <rect
       x="1117.1331"
       y="139.31902"
       width="1848.3141"
       height="513.48608"
       id="rect34924" />
  </defs>
  <sodipodi:namedview
     id="base"
     pagecolor="#949494"
     bordercolor="#666666"
     borderopacity="1.0"
     inkscape:pageopacity="0"
     inkscape:pageshadow="2"
     inkscape:zoom="0.40305087"
     inkscape:cx="1008.5576"
     inkscape:cy="604.1421"
     inkscape:document-units="px"
     inkscape:current-layer="layer6"
     showgrid="false"
     inkscape:window-width="1920"
     inkscape:window-height="1021"
     inkscape:window-x="0"
     inkscape:window-y="0"
     inkscape:window-maximized="1"
     units="px"
     inkscape:pagecheckerboard="true" />
  <metadata
     id="metadata7">
    <rdf:RDF>
      <cc:Work
         rdf:about="">
        <dc:format>image/svg+xml</dc:format>
        <dc:type
           rdf:resource="http://purl.org/dc/dcmitype/StillImage" />
      </cc:Work>
    </rdf:RDF>
  </metadata>
  <g
     inkscape:groupmode="layer"
     id="layer6"
     inkscape:label="streifen"
     style="display:inline">
    <rect
       style="display:inline;fill:#0068ac;fill-opacity:1;stroke:#000000;stroke-width:0;stroke-miterlimit:4;stroke-dasharray:none;stroke-opacity:1"
       id="rect122252"
       width="1000"
       height="500"
       x="1.6991436e-07"
       y="5.4182436e-07" />
    <rect
       style="fill:#ffffff;fill-opacity:1;stroke:#000000;stroke-width:0"
       id="rect51936"
       width="1000"
       height="500"
       x="1.0218557e-06"
       y="500" />
  </g>
  <g
     inkscape:groupmode="layer"
     id="layer7"
     inkscape:label="div"
     style="display:inline">
    <path
       id="path123157"
       style="fill:#0068ac;fill-opacity:1;fill-rule:evenodd;stroke:#ffffff;stroke-width:0;stroke-linecap:butt;stroke-linejoin:miter;stroke-miterlimit:4;stroke-dasharray:none;stroke-opacity:1"
       d="m 26.574219,500 c -0.0016,0.50295 -0.07422,0.99688 -0.07422,1.5 C 26.50001,627.46809 76.552101,748.30211 165.625,837.375 254.6979,926.44789 375.53191,976.5 501.5,976.5 627.46809,976.5 748.3021,926.44789 837.375,837.375 926.4479,748.30211 976.49999,627.46809 976.5,501.5 c 0,-0.50312 -0.0726,-0.99705 -0.0742,-1.5 h -50 c 0.002,0.50296 0.0742,0.99685 0.0742,1.5 -10e-6,112.72649 -44.7708,220.80987 -124.48047,300.51953 C 722.30986,881.7292 614.22649,926.5 501.5,926.5 388.77351,926.5 280.69014,881.7292 200.98047,802.01953 121.2708,722.30987 76.50001,614.22649 76.5,501.5 c 0,-0.50315 0.07244,-0.99704 0.07422,-1.5 z M 469.48047,500 221.99414,747.48633 257.34961,782.8418 479.83594,560.35547 V 875 h 50 V 560.35352 L 752.32422,782.8418 787.67969,747.48828 540.19141,500 Z" />
    <path
       id="path1030"
       style="display:inline;fill:#fdfeff;fill-opacity:1;stroke:#000000;stroke-width:0"
       d="M 501.5,26.5 C 375.5319,26.5 254.6979,76.5521 165.625,165.625 76.906649,254.34335 26.933805,374.57444 26.537109,500 h 50 C 76.933438,387.81651 121.62536,280.33558 200.98047,200.98047 280.69014,121.2708 388.7735,76.5 501.5,76.5 614.2265,76.5 722.30986,121.2708 802.01953,200.98047 881.37464,280.33558 926.06656,387.81651 926.46289,500 h 50 C 976.06619,374.57444 926.09335,254.34335 837.375,165.625 748.3021,76.5521 627.4681,26.5 501.5,26.5 Z M 429.83594,125 v 112.5 1.25 h 0.043 c 0.43862,26.31117 14.61469,50.51313 37.45703,63.70117 4.02092,2.32148 8.21175,4.21351 12.5,5.73047 V 439.64453 L 257.34961,217.1582 l -12.125,12.125 -0.002,-0.004 -71.59571,71.59375 35.35547,35.35547 L 257.3457,287.86523 469.48047,500 h 70.71094 l 159.09961,-159.09961 0.88476,-0.88281 -0.17773,-0.17774 70.0039,-105.0039 -105.00586,70.00195 -0.17578,-0.17578 -0.8789,0.87891 -0.006,0.004 L 529.8358,439.64463 V 308.18164 c 4.28885,-1.51705 8.47854,-3.40868 12.5,-5.73047 22.84235,-13.18804 37.02038,-37.38998 37.45898,-63.70117 h 0.041 V 237.5 125 h -50 v 111.25 c 0,9.37822 -4.76498,18.04331 -12.5,22.73242 -7.73503,4.68911 -17.26497,4.68911 -25,0 -7.73502,-4.68911 -12.5,-13.3542 -12.5,-22.73242 V 125 Z" />
  </g>
  <g
     inkscape:label="huette"
     inkscape:groupmode="layer"
     id="layer1"
     transform="translate(0,-52.361943)"
     style="display:none">
    <g
       id="g123154">
      <g
         id="g4292"
         transform="matrix(1.2499996,0,0,1.2499996,-120.16309,-138.09026)"
         style="fill:#ffffff;fill-opacity:1">
        <g
           id="g4263"
           style="fill:#ffffff;fill-opacity:1">
          <path
             style="fill:#ffffff;fill-opacity:1;fill-rule:evenodd;stroke:#ffffff;stroke-width:0;stroke-linecap:butt;stroke-linejoin:miter;stroke-miterlimit:4;stroke-dasharray:none;stroke-opacity:1"
             d="m 560,342.36194 c 0,21.43593 -11.43594,41.24355 -30,51.96152 -18.56406,10.71797 -41.43594,10.71797 -60,0 -18.56406,-10.71797 -30,-30.52559 -30,-51.96152 l 40,-1 c 0,7.50258 3.81198,14.43524 10,18.18653 6.18802,3.75129 13.81198,3.75129 20,0 6.18802,-3.75129 10,-10.68395 10,-18.18653 z"
             id="path3338"
             inkscape:connector-curvature="0"
             sodipodi:nodetypes="cssccsscc" />
          <rect
             style="fill:#ffffff;fill-opacity:1;stroke:#ffffff;stroke-width:0;stroke-miterlimit:4;stroke-dasharray:none"
             id="rect4142"
             width="39.999989"
             height="470"
             x="480"
             y="382.36215" />
          <rect
             style="fill:#ffffff;fill-opacity:1;stroke:#ffffff;stroke-width:0;stroke-miterlimit:4;stroke-dasharray:none"
             id="rect4142-6"
             width="39.999992"
             height="90.999992"
             x="440"
             y="252.36194" />
          <rect
             style="fill:#ffffff;fill-opacity:1;stroke:#ffffff;stroke-width:0;stroke-miterlimit:4;stroke-dasharray:none"
             id="rect4142-6-7"
             width="39.999992"
             height="90.999992"
             x="520"
             y="252.36194" />
        </g>
        <g
           transform="rotate(45,660,166.08778)"
           id="g4278"
           style="fill:#ffffff;fill-opacity:1">
          <rect
             style="fill:#ffffff;fill-opacity:1;stroke:#ffffff;stroke-width:0;stroke-miterlimit:4;stroke-dasharray:none"
             id="rect4142-5"
             width="39.999989"
             height="501"
             x="800"
             y="351.36194" />
          <path
             sodipodi:type="star"
             style="fill:#ffffff;fill-opacity:1;stroke:#ffffff;stroke-width:0;stroke-miterlimit:4;stroke-dasharray:none"
             id="path4231"
             sodipodi:sides="3"
             sodipodi:cx="291.22806"
             sodipodi:cy="-428.33975"
             sodipodi:r1="330.36536"
             sodipodi:r2="165.18268"
             sodipodi:arg1="0.52359878"
             sodipodi:arg2="1.5707963"
             inkscape:flatsided="true"
             inkscape:rounded="0"
             inkscape:randomized="0"
             d="M 577.33285,-263.15707 5.1232659,-263.15708 291.22806,-758.70511 Z"
             inkscape:transform-center-y="-16.66666"
             transform="matrix(0.06990445,0,0,0.20179677,799.64186,405.46619)" />
        </g>
        <rect
           transform="rotate(-45)"
           y="444.13226"
           x="-57.025482"
           height="600"
           width="40"
           id="rect4250"
           style="fill:#ffffff;fill-opacity:1;stroke:#ffffff;stroke-width:0;stroke-miterlimit:4;stroke-dasharray:none" />
        <rect
           transform="rotate(-45)"
           y="444.12909"
           x="-111.74324"
           height="39.999989"
           width="80.999992"
           id="rect4252"
           style="fill:#ffffff;fill-opacity:1;stroke:#ffffff;stroke-width:0;stroke-miterlimit:4;stroke-dasharray:none" />
      </g>
      <circle
         style="display:inline;fill:none;stroke:#ffffff;stroke-width:50;stroke-miterlimit:4;stroke-dasharray:none;stroke-opacity:1"
         id="path343"
         cx="501.5"
         cy="553.86194"
         r="450" />
    </g>
  </g>
</svg>
